<svg xmlns="http://www.w3.org/2000/svg" width="352" height="68" viewBox="0 0 352 68">
    <path fill="#FFF" fill-rule="evenodd" d="M11.784 45.333l.293.004c6.124.155 11.04 5.168 11.04 11.33C23.118 62.925 18.044 68 11.785 68S.451 62.926.451 56.666c0-6.259 5.074-11.333 11.333-11.333zm0-45.333c3.013 0 5.75 1.176 7.78 3.093l.24.234h.001l45.32 45.32.233.24a11.294 11.294 0 0 1 3.093 7.78c0 6.26-5.074 11.333-11.334 11.333-3.012 0-5.75-1.175-7.78-3.093l-.24-.233-45.32-45.32-.233-.24a11.294 11.294 0 0 1-3.093-7.78C.451 5.073 5.525 0 11.784 0zm127.542 20.518c4.334 0 7.945 2.227 9.63 4.635V21.12h6.622v30.095h-6.621v-4.033c-1.686 2.408-5.297 4.635-9.631 4.635-8.246 0-14.506-7.042-14.506-15.65 0-8.607 6.26-15.649 14.506-15.649zm83.641 0c4.334 0 7.946 2.227 9.63 4.635V21.12h6.622v30.095h-6.621v-4.033c-1.685 2.408-5.297 4.635-9.63 4.635-8.247 0-14.507-7.042-14.507-15.65 0-8.607 6.26-15.649 14.506-15.649zm113.495 0c9.21 0 15.65 7.042 15.048 17.275h-23.956c.24 4.574 3.732 8.186 9.088 8.186 3.311 0 6.2-1.324 7.585-4.213h6.922c-1.686 5.657-7.103 10.051-14.747 10.051-8.968 0-15.409-6.62-15.409-15.65 0-8.908 6.2-15.65 15.469-15.65zm-78.544-7.765v8.367h8.607v5.899h-8.607V40.44c0 3.732 1.625 5.117 5.056 5.117 1.264 0 2.588-.241 3.551-.603v5.9c-1.324.42-2.89.661-4.936.661-5.778 0-10.292-3.19-10.292-9.992V27.02h-6.26V21.12h6.26v-8.367h6.62zm-150.575 7.765c6.982 0 11.497 4.936 11.497 12.58v18.117h-6.621V34.181c0-4.755-2.408-7.644-6.26-7.644-4.394 0-7.764 3.43-7.764 9.871v14.807h-6.622V21.12h6.622v4.093c1.805-3.01 5.236-4.695 9.148-4.695zm71.77.301c.843 0 1.685.06 2.588.24v6.802c-1.143-.361-2.107-.542-3.31-.542-3.793 0-7.223 3.19-7.223 9.21v14.686h-6.621V21.12h6.62v5.357c1.144-3.431 4.515-5.658 7.946-5.658zm23.212 0c.843 0 1.686.06 2.588.24v6.802c-1.143-.361-2.106-.542-3.31-.542-3.792 0-7.223 3.19-7.223 9.21v14.686h-6.621V21.12h6.621v5.357c1.144-3.431 4.514-5.658 7.945-5.658zm78.102.3v30.096h-6.621V21.12h6.62zm13.057 0l9.15 21.068 9.209-21.067h7.403l-13.663 30.095h-5.839L286.141 21.12h7.343zM140.53 26.538c-5.357 0-8.969 4.214-8.969 9.63 0 5.418 3.612 9.631 8.969 9.631 5.357 0 8.968-4.213 8.968-9.63 0-5.417-3.611-9.631-8.968-9.631zm83.641 0c-5.357 0-8.968 4.214-8.968 9.63 0 5.418 3.611 9.631 8.968 9.631 5.357 0 8.969-4.213 8.969-9.63 0-5.417-3.612-9.631-8.969-9.631zm112.11-.481c-4.153 0-7.584 2.407-8.486 7.042h16.612c-1.023-4.876-4.454-7.042-8.126-7.042zM57.118 0l.292.004c6.124.155 11.041 5.168 11.041 11.33 0 6.259-5.074 11.333-11.333 11.333-6.26 0-11.334-5.074-11.334-11.334C45.784 5.074 50.86 0 57.118 0zm219.998 5.711a4.38 4.38 0 0 1 4.394 4.394c0 2.468-1.926 4.454-4.394 4.454-2.408 0-4.455-1.986-4.455-4.454 0-2.408 2.047-4.394 4.455-4.394z"/>
</svg>
